<svg width="1024" height="1024" viewBox="0 0 1024 1024" fill="none" xmlns="http://www.w3.org/2000/svg">
  <defs>
    <linearGradient id="bg" x1="132" y1="92" x2="888" y2="940" gradientUnits="userSpaceOnUse">
      <stop stop-color="#4D96FF"/>
      <stop offset="0.55" stop-color="#2563EB"/>
      <stop offset="1" stop-color="#1438C9"/>
    </linearGradient>
    <radialGradient id="glow" cx="0" cy="0" r="1" gradientUnits="userSpaceOnUse" gradientTransform="translate(290 210) rotate(43.1524) scale(589.072)">
      <stop stop-color="white" stop-opacity="0.28"/>
      <stop offset="1" stop-color="white" stop-opacity="0"/>
    </radialGradient>
    <linearGradient id="plate" x1="512" y1="240" x2="512" y2="784" gradientUnits="userSpaceOnUse">
      <stop stop-color="#FFFFFF"/>
      <stop offset="1" stop-color="#EAF1FF"/>
    </linearGradient>
    <filter id="shadow" x="160" y="182" width="704" height="704" filterUnits="userSpaceOnUse" color-interpolation-filters="sRGB">
      <feFlood flood-opacity="0" result="BackgroundImageFix"/>
      <feColorMatrix in="SourceAlpha" type="matrix" values="0 0 0 0 0 0 0 0 0 0 0 0 0 0 0 0 0 0 127 0" result="hardAlpha"/>
      <feOffset dy="34"/>
      <feGaussianBlur stdDeviation="28"/>
      <feColorMatrix type="matrix" values="0 0 0 0 0.027451 0 0 0 0 0.152941 0 0 0 0 0.486275 0 0 0 0.22 0"/>
      <feBlend mode="normal" in2="BackgroundImageFix" result="effect1_dropShadow_1_1"/>
      <feBlend mode="normal" in="SourceGraphic" in2="effect1_dropShadow_1_1" result="shape"/>
    </filter>
  </defs>
  <rect x="24" y="24" width="976" height="976" rx="224" fill="url(#bg)"/>
  <rect x="24" y="24" width="976" height="976" rx="224" fill="url(#glow)"/>
  <path d="M122 122C122 97.6995 141.699 78 166 78H858C882.301 78 902 97.6995 902 122V244C902 268.301 882.301 288 858 288H166C141.699 288 122 268.301 122 244V122Z" fill="white" fill-opacity="0.06"/>
  <g filter="url(#shadow)">
    <rect x="240" y="220" width="544" height="544" rx="148" fill="url(#plate)"/>
    <rect x="240" y="220" width="544" height="544" rx="148" stroke="white" stroke-opacity="0.55" stroke-width="8"/>
    <text x="512" y="598" text-anchor="middle" font-family="SF Pro Display, Helvetica Neue, Arial, sans-serif" font-size="324" font-weight="700" letter-spacing="-26" fill="#165DFF">{r}</text>
  </g>
</svg>
