<svg width="220" height="220" viewBox="0 0 220 220" fill="none" xmlns="http://www.w3.org/2000/svg">
<g clip-path="url(#clip0_23_21)">
<path d="M110 220C170.751 220 220 170.751 220 110C220 49.2487 170.751 0 110 0C49.2487 0 0 49.2487 0 110C0 170.751 49.2487 220 110 220Z" fill="#F26798"/>
<path fill-rule="evenodd" clip-rule="evenodd" d="M149.111 55.5556H71.3333C67.0378 55.5556 63.5556 59.0378 63.5556 63.3333V156.667C63.5556 160.962 67.0378 164.444 71.3333 164.444H149.111C153.407 164.444 156.889 160.962 156.889 156.667V63.3333C156.889 59.0378 153.407 55.5556 149.111 55.5556ZM71.3333 40C58.4467 40 48 50.4467 48 63.3333V156.667C48 169.554 58.4467 180 71.3333 180H149.111C161.998 180 172.444 169.554 172.444 156.667V63.3333C172.444 50.4467 161.998 40 149.111 40H71.3333Z" fill="white"/>
<path d="M79.1111 71.1111H141.333V86.6667H79.1111V71.1111Z" fill="white"/>
<path d="M79.1111 102.222H141.333V117.778H79.1111V102.222Z" fill="white"/>
<path d="M79.1111 133.333H118V148.889H79.1111V133.333Z" fill="white"/>
</g>
<defs>
<clipPath id="clip0_23_21">
<rect width="220" height="220" fill="white"/>
</clipPath>
</defs>
</svg>
