<svg width="64" height="64" viewBox="0 0 64 64" xmlns="http://www.w3.org/2000/svg" role="img" aria-label="Discord">
  <rect width="64" height="64" rx="14" fill="#5865F2"/>
  <path d="M45.9 19.8c-3.3-1.5-6.7-2.2-10-2.4l-.5 1c3 .5 5.7 1.4 8.2 2.8-3.4-1.6-7.3-2.5-11.6-2.5s-8.2.9-11.6 2.5c2.5-1.4 5.2-2.3 8.2-2.8l-.5-1c-3.3.2-6.7.9-10 2.4C14.9 25 13 30 13 35.1c3.1 2.4 6.2 3.9 9.3 4.9l2.2-3.5c-1.2-.4-2.3-.9-3.3-1.5.3.2.7.4 1 .5 5.1 2.2 10.6 2.2 15.7 0 .4-.1.7-.3 1-.5-1 .6-2.1 1.1-3.3 1.5l2.2 3.5c3.1-1 6.2-2.5 9.3-4.9 0-5.1-1.9-10.1-5.2-15.3zM26.2 33.8c-1.5 0-2.7-1.4-2.7-3.1s1.2-3.1 2.7-3.1 2.7 1.4 2.7 3.1-1.2 3.1-2.7 3.1zm11.6 0c-1.5 0-2.7-1.4-2.7-3.1s1.2-3.1 2.7-3.1 2.7 1.4 2.7 3.1-1.2 3.1-2.7 3.1z" fill="#fff"/>
</svg>
