<svg width="220" height="220" viewBox="0 0 220 220" fill="none" xmlns="http://www.w3.org/2000/svg">
<g clip-path="url(#clip0_9_315)">
<path d="M110 220C170.751 220 220 170.751 220 110C220 49.2487 170.751 0 110 0C49.2487 0 0 49.2487 0 110C0 170.751 49.2487 220 110 220Z" fill="#3B5998"/>
<path d="M140.383 109.865H121.103V180H91.8925V109.865H78V85.217H91.8925V69.2668C91.8925 57.8607 97.349 40 121.363 40L143 40.0899V64.0151H127.301C124.726 64.0151 121.105 65.2927 121.105 70.7337V85.2399H142.935L140.383 109.865Z" fill="white"/>
</g>
<defs>
<clipPath id="clip0_9_315">
<rect width="220" height="220" fill="white"/>
</clipPath>
</defs>
</svg>
