<svg width="220" height="220" viewBox="0 0 220 220" fill="none" xmlns="http://www.w3.org/2000/svg">
<g clip-path="url(#clip0_13_396)">
<path fill-rule="evenodd" clip-rule="evenodd" d="M110 220C170.751 220 220 170.751 220 110C220 49.2487 170.751 0 110 0C49.2487 0 0 49.2487 0 110C0 170.751 49.2487 220 110 220Z" fill="#0E8BFF"/>
<path fill-rule="evenodd" clip-rule="evenodd" d="M110 48C71.3403 48 40 73.0252 40 103.896C40 119.581 48.1022 133.749 61.1354 143.9C64.8395 164.178 46.9395 167.926 46.9395 167.926C46.9395 167.926 44.7042 170.786 50.2582 171.842C72.6124 175.916 90.6886 157.982 90.6886 157.982L90.7091 157.623C96.8397 159.023 103.306 159.79 110 159.79C148.661 159.79 180 134.765 180 103.894C180 73.0238 148.661 48 110 48Z" fill="white"/>
</g>
<defs>
<clipPath id="clip0_13_396">
<rect width="220" height="220" fill="white"/>
</clipPath>
</defs>
</svg>
