<svg width="220" height="220" viewBox="0 0 220 220" fill="none" xmlns="http://www.w3.org/2000/svg">
<path d="M110 220C170.751 220 220 170.751 220 110C220 49.2487 170.751 0 110 0C49.2487 0 0 49.2487 0 110C0 170.751 49.2487 220 110 220Z" fill="#6FC73B"/>
<path fill-rule="evenodd" clip-rule="evenodd" d="M121.128 40.508C129.086 41.4795 135.517 43.3548 142.573 46.7214C149.512 50.0429 153.954 53.1834 159.83 58.8997C165.336 64.2998 168.39 68.3896 171.628 74.7385C176.139 83.5956 178.707 94.1245 179.146 105.715C179.309 109.669 179.193 110.551 178.267 111.68C176.509 113.872 172.646 113.51 171.328 111.048C170.911 110.234 170.795 109.534 170.656 106.371C170.425 101.513 170.078 98.3724 169.384 94.6216C166.655 79.9128 159.437 68.1636 147.916 59.7357C138.316 52.6864 128.391 49.2519 115.391 48.5063C110.995 48.2578 110.232 48.0998 109.237 47.3541C107.386 45.9306 107.294 42.5867 109.075 41.0277C110.162 40.056 110.926 39.9205 114.697 40.0335C116.663 40.1012 119.554 40.3272 121.128 40.508ZM68.2444 42.9482C69.0543 43.2193 70.3035 43.8518 71.0207 44.3038C75.4157 47.1508 87.6535 62.447 91.6558 70.0841C93.9458 74.4447 94.7091 77.6758 93.9923 80.0708C93.2516 82.6466 92.0259 84.0023 86.5431 88.3179C84.3454 90.0575 82.2864 91.8425 81.9628 92.317C81.1299 93.492 80.4588 95.7966 80.4588 97.4234C80.4823 101.197 82.9806 108.043 86.2656 113.307C88.81 117.397 93.3673 122.639 97.8785 126.661C103.176 131.406 107.849 134.636 113.123 137.19C119.902 140.488 124.043 141.324 127.073 139.946C127.837 139.607 128.646 139.155 128.901 138.952C129.132 138.749 130.913 136.625 132.857 134.275C136.604 129.666 137.46 128.92 140.028 128.062C143.29 126.977 146.621 127.271 149.975 128.943C152.52 130.231 158.072 133.597 161.658 136.037C166.377 139.268 176.463 147.312 177.828 148.916C180.234 151.809 180.65 155.514 179.031 159.604C177.319 163.919 170.657 172.008 166.007 175.465C161.796 178.583 158.812 179.78 154.88 179.961C151.641 180.119 150.299 179.848 146.158 178.176C113.679 165.094 87.7461 145.572 67.1571 118.753C56.4002 104.744 48.2108 90.2158 42.6123 75.1453C39.3507 66.3562 39.1888 62.5376 41.872 58.0414C43.0289 56.1435 47.9563 51.4438 51.5419 48.8229C57.5106 44.4846 60.2633 42.8804 62.4611 42.4286C63.9647 42.1122 66.5786 42.3607 68.2444 42.9482ZM122.724 56.889C136.766 58.8997 147.639 65.2715 154.764 75.6197C158.766 81.4491 161.264 88.2952 162.12 95.6383C162.421 98.3271 162.421 103.23 162.097 104.044C161.796 104.812 160.825 105.851 159.992 106.28C159.09 106.732 157.17 106.687 156.106 106.145C154.324 105.264 153.792 103.863 153.792 100.067C153.792 94.215 152.242 88.0467 149.559 83.2566C146.505 77.7888 142.064 73.2699 136.651 70.1292C132.001 67.4178 125.13 65.407 118.861 64.91C116.593 64.7291 115.344 64.2773 114.488 63.3057C113.17 61.837 113.031 59.8487 114.141 58.1994C115.344 56.3692 117.195 56.0755 122.724 56.889ZM127.651 73.9477C132.209 74.8967 135.702 76.5913 138.686 79.3252C142.526 82.8723 144.632 87.1654 145.557 93.3338C146.181 97.3556 145.927 98.9371 144.469 100.248C143.105 101.468 140.583 101.513 139.056 100.361C137.946 99.5471 137.599 98.6886 137.344 96.3615C137.044 93.266 136.488 91.0969 135.54 89.0859C133.504 84.8156 129.919 82.6013 123.858 81.8783C121.012 81.5393 120.156 81.223 119.231 80.1612C117.542 78.1954 118.19 75.0097 120.526 73.8347C121.406 73.4054 121.776 73.3602 123.719 73.4732C124.922 73.541 126.703 73.7442 127.651 73.9477Z" fill="white"/>
</svg>
