<svg width="220" height="220" viewBox="0 0 220 220" fill="none" xmlns="http://www.w3.org/2000/svg">
<g clip-path="url(#clip0_9_310)">
<path d="M110 219.998C170.751 219.998 220 170.749 220 109.998C220 49.2468 170.751 -0.00183105 110 -0.00183105C49.2487 -0.00183105 0 49.2468 0 109.998C0 170.749 49.2487 219.998 110 219.998Z" fill="#007AB9"/>
<path d="M175.799 114.085V160.731H147.803V117.211C147.803 106.283 143.76 98.8209 133.624 98.8209C125.888 98.8209 121.293 103.845 119.263 108.71C118.526 110.448 118.336 112.862 118.336 115.301V160.729H90.3374C90.3374 160.729 90.7132 87.0202 90.3374 79.3904H118.338V90.9168C118.282 91.0076 118.202 91.0963 118.152 91.1831H118.338V90.9168C122.059 85.3866 128.694 77.4805 143.57 77.4805C161.99 77.4805 175.799 89.1057 175.799 114.085ZM61.0484 40.1826C51.4713 40.1826 45.2055 46.2554 45.2055 54.2341C45.2055 62.0434 51.2896 68.2916 60.681 68.2916H60.8626C70.6277 68.2916 76.6993 62.0434 76.6993 54.2341C76.5135 46.2554 70.6277 40.1826 61.0484 40.1826ZM46.8696 160.731H74.8578V79.3904H46.8696V160.731Z" fill="#F1F2F2"/>
</g>
<defs>
<clipPath id="clip0_9_310">
<rect width="220" height="220" fill="white"/>
</clipPath>
</defs>
</svg>
