<svg width="220" height="220" viewBox="0 0 220 220" fill="none" xmlns="http://www.w3.org/2000/svg">
<path d="M220 110.001C220 170.752 170.749 220 109.999 220C49.2476 220 0 170.752 0 110.001C0 49.2476 49.2476 0 109.999 0C170.749 0.00036917 220 49.248 220 110.001Z" fill="#F05C27"/>
<path d="M54 54H166C169.713 54 173.274 55.4727 175.899 58.0943C178.525 60.7158 180 64.2713 180 67.9787V151.851C180 153.686 179.638 155.504 178.934 157.2C178.231 158.896 177.2 160.437 175.9 161.735C174.599 163.033 173.056 164.063 171.358 164.765C169.659 165.468 167.839 165.829 166 165.829H54C46.23 165.829 40 159.539 40 151.851V67.9787C40 60.2205 46.23 54 54 54ZM110 102.925L166 67.9787H54L110 102.925ZM54 151.851H166V84.5434L110 119.42L54 84.5434V151.851Z" fill="white"/>
</svg>
