<svg width="220" height="220" viewBox="0 0 220 220" fill="none" xmlns="http://www.w3.org/2000/svg">
<g clip-path="url(#clip0_23_2)">
<path fill-rule="evenodd" clip-rule="evenodd" d="M110 0C170.754 0 220 49.2465 220 110C220 170.754 170.754 220 110 220C49.2465 220 0 170.754 0 110C0 49.2465 49.2465 0 110 0Z" fill="#F05C27"/>
<path d="M110 180L107.321 176.744C105.536 174.376 60 121.395 60 89.7252C60 62.1988 82.6191 40 110 40C137.381 40 160 62.4948 160 89.7252C160 121.395 114.464 174.672 112.679 176.744L110 180ZM110 46.8077C86.1905 46.8077 67.1429 66.0465 67.1429 89.4292C67.1429 114.292 100.179 156.617 110 168.753C119.821 156.617 152.857 114.588 152.857 89.4292C152.857 66.0465 133.81 46.8077 110 46.8077Z" fill="white"/>
<path d="M110 108.668C99.5833 108.668 90.9524 100.085 90.9524 89.7252C90.9524 79.3658 99.5833 70.7823 110 70.7823C120.417 70.7823 129.048 79.3658 129.048 89.7252C129.048 100.085 120.417 108.668 110 108.668ZM110 77.8859C103.452 77.8859 98.0952 83.2136 98.0952 89.7252C98.0952 96.2369 103.452 101.565 110 101.565C116.548 101.565 121.905 96.2369 121.905 89.7252C121.905 83.2136 116.548 77.8859 110 77.8859Z" fill="white"/>
<path d="M110 180L107.321 176.744C105.536 174.376 60 121.395 60 89.7252C60 62.1988 82.6191 40 110 40C137.381 40 160 62.4948 160 89.7252C160 121.395 114.464 174.672 112.679 176.744L110 180ZM110 46.8077C86.1905 46.8077 67.1429 66.0465 67.1429 89.4292C67.1429 114.292 100.179 156.617 110 168.753C119.821 156.617 152.857 114.588 152.857 89.4292C152.857 66.0465 133.81 46.8077 110 46.8077Z" stroke="white" stroke-width="4"/>
<path d="M110 108.668C99.5833 108.668 90.9524 100.085 90.9524 89.7252C90.9524 79.3658 99.5833 70.7823 110 70.7823C120.417 70.7823 129.048 79.3658 129.048 89.7252C129.048 100.085 120.417 108.668 110 108.668ZM110 77.8859C103.452 77.8859 98.0952 83.2136 98.0952 89.7252C98.0952 96.2369 103.452 101.565 110 101.565C116.548 101.565 121.905 96.2369 121.905 89.7252C121.905 83.2136 116.548 77.8859 110 77.8859Z" stroke="white" stroke-width="4"/>
</g>
<defs>
<clipPath id="clip0_23_2">
<rect width="220" height="220" fill="white"/>
</clipPath>
</defs>
</svg>
