<svg width="220" height="220" viewBox="0 0 220 220" fill="none" xmlns="http://www.w3.org/2000/svg">
<path d="M110 220C170.751 220 220 170.751 220 110C220 49.2487 170.751 0 110 0C49.2487 0 0 49.2487 0 110C0 170.751 49.2487 220 110 220Z" fill="#554444"/>
<path fill-rule="evenodd" clip-rule="evenodd" d="M104.4 172.72H118.4V158.72H104.4V172.72ZM138 40H82C74.3 40 68 46.3 68 54V166C68 173.7 74.3 180 82 180H138C145.7 180 152 173.7 152 166V54C152 46.3 145.7 40 138 40ZM138 152H82V68H138V152Z" fill="white"/>
</svg>
