<svg width="220" height="220" viewBox="0 0 220 220" fill="none" xmlns="http://www.w3.org/2000/svg">
<g clip-path="url(#clip0_21_8)">
<path fill-rule="evenodd" clip-rule="evenodd" d="M110 220C170.751 220 220 170.751 220 110C220 49.2487 170.751 0 110 0C49.2487 0 0 49.2487 0 110C0 170.751 49.2487 220 110 220Z" fill="url(#paint0_linear_21_8)"/>
<path d="M171.262 95.0889L165.05 96.6044C163.696 91.0323 161.498 85.6999 158.532 80.7919L164.009 77.4919C167.311 82.9526 169.757 88.8872 171.262 95.0889ZM63.436 130.699C61.8452 127.119 60.6749 123.366 59.9486 119.517C57.9452 108.885 59.3829 97.8915 64.0529 88.1326C68.7229 78.3737 76.3821 70.3575 85.9183 65.2479C95.4544 60.1384 106.371 58.2017 117.083 59.7189C127.795 61.2361 137.744 66.1284 145.486 73.6852C153.228 81.2421 158.36 91.07 160.136 101.742C161.912 112.414 160.24 123.374 155.363 133.031C150.486 142.688 142.658 150.539 133.015 155.444C123.372 160.349 112.416 162.053 101.739 160.307C95.0681 159.209 88.6829 156.792 82.9571 153.196L75.5403 154.935L67.7492 156.756L61.7336 158.167L63.121 152.114L64.9257 144.264L66.6445 136.765C65.4434 134.815 64.3716 132.789 63.436 130.699ZM147.345 59.2367C152.602 63.1067 157.23 67.7654 161.065 73.0481L155.883 76.7997C152.438 72.052 148.28 67.8659 143.555 64.3899L147.345 59.2367ZM124.948 48.7798C131.291 50.3195 137.355 52.8422 142.918 56.2563L139.581 61.7108C134.582 58.6426 129.133 56.3755 123.433 54.9918L124.948 48.7798ZM110.018 47C113.264 46.9981 116.505 47.2453 119.713 47.7395L118.727 54.0589C112.907 53.1626 106.982 53.1704 101.164 54.0821L100.164 47.7657C103.424 47.2538 106.719 46.9978 110.018 47ZM94.9291 48.8167L96.4626 55.0287C90.7942 56.4217 85.377 58.6884 80.4056 61.7473L77.0648 56.2933C82.5961 52.8903 88.6228 50.368 94.9291 48.8167ZM72.6373 59.2779L76.4349 64.4311C71.8503 67.812 67.7991 71.862 64.417 76.4456L59.2689 72.6575C63.0297 67.5531 67.5362 63.0427 72.6373 59.2775V59.2779ZM56.2838 77.079L61.7379 80.4198C58.6523 85.4391 56.3731 90.9112 54.9832 96.6367L48.7712 95.1259C50.3143 88.7536 52.8495 82.664 56.2838 77.079ZM47 110.018C46.9992 106.785 47.2449 103.557 47.7348 100.361L54.0563 101.342C53.171 107.097 53.1741 112.954 54.0654 118.709L47.7395 119.69C47.2455 116.49 46.9983 113.257 47 110.018ZM54.9969 123.415C55.5801 125.854 56.3318 128.25 57.2468 130.585C58.391 133.52 59.7788 136.353 61.3958 139.056L59.3419 147.482L59.2642 147.797L53.4402 146.199L54.8367 140.471C52.1323 135.584 50.0938 130.357 48.7755 124.93L54.9969 123.415ZM56.448 170.819C55.4426 171.052 54.3942 171.024 53.4028 170.737C52.4113 170.451 51.5099 169.915 50.7844 169.18C50.059 168.446 49.5337 167.539 49.2588 166.544C48.9838 165.549 48.9683 164.5 49.2138 163.498L52.2031 151.256L58.0271 152.859L55.1336 164.712L67.1055 161.932L68.7899 167.952L56.448 170.819ZM95.0021 171.234C89.7299 169.948 84.6481 167.98 79.8853 165.378L73.8654 166.775L72.1857 160.75L72.5295 160.673L81.0695 158.692C83.9298 160.396 86.9349 161.844 90.05 163.019C92.1658 163.817 94.3288 164.485 96.5266 165.018L95.0021 171.234ZM110.018 173.039C106.743 173.042 103.473 172.788 100.237 172.281L101.228 165.965C107.021 166.867 112.919 166.872 118.714 165.978L119.695 172.3C116.493 172.794 113.258 173.041 110.018 173.039V173.039ZM124.929 171.263L123.413 165.051C129.083 163.676 134.504 161.428 139.483 158.387L142.81 163.845C137.27 167.228 131.238 169.73 124.93 171.262L124.929 171.263ZM147.24 160.879L143.465 155.716C148.153 152.278 152.287 148.144 155.725 143.456L160.887 147.231C157.061 152.45 152.458 157.052 147.24 160.879ZM163.859 142.8L158.395 139.473C161.446 134.472 163.699 129.027 165.073 123.334L171.289 124.837C169.763 131.175 167.256 137.235 163.859 142.799V142.8ZM172.321 119.6L165.995 118.628C166.87 112.887 166.865 107.046 165.981 101.306L172.302 100.321C173.282 106.71 173.288 113.21 172.321 119.6Z" fill="white"/>
</g>
<defs>
<linearGradient id="paint0_linear_21_8" x1="-83.6153" y1="303.617" x2="277.639" y2="-57.6317" gradientUnits="userSpaceOnUse">
<stop stop-color="#1243CE"/>
<stop offset="1" stop-color="#1478F8"/>
</linearGradient>
<clipPath id="clip0_21_8">
<rect width="220" height="220" fill="white"/>
</clipPath>
</defs>
</svg>
