<svg width="220" height="220" viewBox="0 0 220 220" fill="none" xmlns="http://www.w3.org/2000/svg">
<g clip-path="url(#clip0_21_2)">
<path fill-rule="evenodd" clip-rule="evenodd" d="M110 220C170.751 220 220 170.751 220 110C220 49.2487 170.751 0 110 0C49.2487 0 0 49.2487 0 110C0 170.751 49.2487 220 110 220Z" fill="#FFE400"/>
<path fill-rule="evenodd" clip-rule="evenodd" d="M111.346 44H111.34C111.219 44 111.106 44 110.997 44.0014C110.135 44.0101 108.718 44.0239 108.591 44.0253C105.483 44.0253 99.2647 44.4631 92.5852 47.4027C88.7662 49.0824 85.331 51.3536 82.3755 54.1532C78.8519 57.489 75.9812 61.6019 73.845 66.3794C70.7164 73.3744 71.4591 85.1566 72.0556 94.6251L72.0577 94.6399C72.1216 95.6539 72.1887 96.7128 72.25 97.7445C71.7911 97.9547 71.0469 98.1765 69.9501 98.1765C68.1854 98.1765 66.0869 97.6139 63.7144 96.5055C63.0163 96.1814 62.2196 96.0175 61.3405 96.0175C59.928 96.0175 58.439 96.4321 57.1474 97.1892C55.5224 98.1407 54.4724 99.4853 54.1872 100.976C53.9993 101.962 54.0083 103.912 56.1798 105.888C57.3742 106.976 59.1288 107.98 61.3935 108.872C61.9878 109.106 62.6931 109.329 63.4401 109.565C66.0324 110.386 69.9559 111.628 70.9791 114.029C71.4976 115.246 71.2744 116.848 70.3177 118.784C70.2926 118.837 70.2676 118.888 70.2447 118.943C70.0056 119.499 67.7751 124.537 63.1996 129.851C60.5996 132.872 57.7359 135.397 54.6926 137.358C50.9781 139.752 46.9588 141.317 42.7476 142.008C41.0939 142.279 39.9129 143.748 40.005 145.418C40.0333 145.899 40.1465 146.378 40.3428 146.843L40.3475 146.851C41.0162 148.41 42.5665 149.735 45.087 150.904C48.167 152.33 52.7733 153.53 58.7768 154.469C59.0801 155.044 59.3951 156.49 59.6131 157.479C59.8413 158.532 60.0793 159.613 60.4186 160.762C60.7847 162.007 61.7341 163.495 64.1734 163.495C65.0978 163.495 66.1609 163.287 67.3919 163.049C69.1948 162.696 71.6601 162.215 74.7371 162.215C76.4431 162.215 78.2111 162.365 79.9907 162.66C83.4212 163.229 86.3785 165.312 89.8002 167.724C94.8085 171.254 100.478 175.25 109.139 175.25C109.375 175.25 109.612 175.242 109.846 175.226C110.132 175.24 110.487 175.25 110.862 175.25C119.526 175.25 125.193 171.253 130.196 167.726L130.204 167.718C133.627 165.309 136.581 163.229 140.01 162.66C141.789 162.365 143.557 162.215 145.263 162.215C148.203 162.215 150.53 162.589 152.609 162.993C153.965 163.259 155.019 163.387 155.827 163.387L155.907 163.389H155.989C157.773 163.389 159.083 162.412 159.584 160.704C159.916 159.579 160.153 158.522 160.387 157.453C160.591 156.525 160.917 155.038 161.22 154.457C167.228 153.516 171.832 152.319 174.913 150.893C177.427 149.73 178.976 148.406 179.649 146.853C179.85 146.388 179.968 145.905 179.995 145.414C180.089 143.747 178.907 142.275 177.252 142.005C158.536 138.929 150.104 119.754 149.756 118.939C149.733 118.886 149.708 118.833 149.681 118.781C148.725 116.844 148.504 115.244 149.022 114.025C150.043 111.626 153.964 110.385 156.559 109.563C157.31 109.327 158.017 109.103 158.607 108.871C161.161 107.865 162.986 106.774 164.19 105.535C165.629 104.058 165.909 102.643 165.891 101.717C165.847 99.4759 164.129 97.4848 161.397 96.5098C160.474 96.1293 159.421 95.9285 158.349 95.9285C157.62 95.9285 156.539 96.0283 155.517 96.5044C153.327 97.526 151.366 98.0846 149.682 98.1642C148.786 98.119 148.158 97.9254 147.752 97.7406C147.803 96.8665 147.859 95.9686 147.918 95.0324L147.942 94.6316C148.542 85.157 149.287 73.3657 146.157 66.3656C144.012 61.5712 141.131 57.4478 137.593 54.1048C134.626 51.3033 131.179 49.0325 127.346 47.3539C120.676 44.4359 114.458 44 111.346 44Z" fill="white"/>
</g>
<defs>
<clipPath id="clip0_21_2">
<rect width="220" height="220" fill="white"/>
</clipPath>
</defs>
</svg>
