<svg width="220" height="220" viewBox="0 0 220 220" fill="none" xmlns="http://www.w3.org/2000/svg">
<g clip-path="url(#clip0_9_341)">
<path d="M110 220C170.751 220 220 170.751 220 110C220 49.2487 170.751 0 110 0C49.2487 0 0 49.2487 0 110C0 170.751 49.2487 220 110 220Z" fill="#0FA57D"/>
<path d="M69.7614 179.899C75.4037 180.009 80.3699 177.894 83.7473 173.917L111.791 140.906C115.169 136.929 116.53 131.61 115.614 125.923C115.025 122.236 113.459 118.732 111.206 115.63L115.032 111.113C123.974 117.065 135.202 116.5 141.383 109.224L169.426 76.2183C176.275 68.1285 174.322 54.8733 165.053 46.6399C160.65 42.7334 155.227 40.5262 149.785 40.3954C144.143 40.2796 139.177 42.3948 135.8 46.3715L107.763 79.3782C105.748 81.7442 104.455 84.5926 103.928 87.699C103.569 89.8154 103.561 92.0707 103.931 94.3779C104.72 99.3056 107.216 103.925 110.889 107.641L107.599 111.523C107.531 111.468 107.495 111.401 107.426 111.347C103.025 107.435 97.6026 105.221 92.1535 105.096C86.519 104.975 81.546 107.095 78.1802 111.074L50.1306 144.084C48.1169 146.444 46.8307 149.288 46.3025 152.4C45.9433 154.516 45.9355 156.772 46.3069 159.073C47.1902 164.566 50.0974 169.743 54.5011 173.644C58.8969 177.555 64.3191 179.768 69.7614 179.899ZM98.9083 121.343C98.9744 121.409 99.0097 121.482 99.0758 121.548L94.0264 127.486C93.6905 127.886 93.4807 128.351 93.3992 128.831C93.2453 129.738 93.5437 130.716 94.2788 131.365C95.3957 132.359 97.091 132.226 98.072 131.075L102.244 126.172C102.865 127.839 103.084 129.566 102.818 131.137C102.615 132.334 102.135 133.442 101.367 134.355L75.9421 164.28C74.4763 166.007 72.5054 166.502 71.1135 166.601C68.3277 166.811 65.3789 165.738 63.0107 163.628C60.8879 161.755 59.4942 159.305 59.0851 156.735C58.7057 154.34 59.2312 152.191 60.5491 150.634L85.9768 120.691C88.8168 117.355 94.731 117.652 98.9083 121.343ZM123.703 100.881L128.444 95.2875C129.421 94.1297 129.308 92.4089 128.196 91.4212C127.073 90.4256 125.383 90.5597 124.403 91.7046L119.477 97.5104C118.088 95.8779 117.026 94.0327 116.71 92.0335C116.326 89.669 116.85 87.4951 118.169 85.932L143.594 56.0012C146.437 52.6474 152.361 52.9575 156.531 56.6597C159.57 59.3407 160.993 63.2294 160.449 66.4366C160.245 67.6401 159.766 68.742 158.993 69.6477L133.561 99.5834C132.236 101.146 130.213 101.979 127.853 101.927C126.448 101.895 125.052 101.494 123.703 100.881Z" fill="white"/>
</g>
<defs>
<clipPath id="clip0_9_341">
<rect width="220" height="220" fill="white"/>
</clipPath>
</defs>
</svg>
