<svg width="220" height="220" viewBox="0 0 220 220" fill="none" xmlns="http://www.w3.org/2000/svg">
<g clip-path="url(#clip0_9_351)">
<path fill-rule="evenodd" clip-rule="evenodd" d="M110 220C170.751 220 220 170.751 220 110C220 49.2487 170.751 0 110 0C49.2487 0 0 49.2487 0 110C0 170.751 49.2487 220 110 220Z" fill="#7F4DA0"/>
<path fill-rule="evenodd" clip-rule="evenodd" d="M119.949 44.4756C127.399 45.3851 133.42 47.1407 140.025 50.2923C146.522 53.4019 150.68 56.342 156.181 61.6934C161.336 66.7488 164.194 70.5775 167.226 76.5211C171.45 84.813 173.854 94.6698 174.265 105.521C174.417 109.222 174.308 110.048 173.442 111.105C171.796 113.157 168.179 112.818 166.945 110.513C166.555 109.751 166.447 109.096 166.317 106.134C166.1 101.587 165.775 98.6465 165.126 95.1351C162.57 81.3651 155.813 70.3659 145.028 62.476C136.04 55.8766 126.749 52.6613 114.579 51.9634C110.464 51.7307 109.749 51.5828 108.818 50.8847C107.085 49.552 106.999 46.4216 108.666 44.9621C109.684 44.0524 110.398 43.9256 113.929 44.0313C115.77 44.0948 118.477 44.3063 119.949 44.4756ZM70.4416 46.7601C71.1997 47.0138 72.3692 47.606 73.0406 48.0291C77.1552 50.6944 88.6118 65.0143 92.3586 72.1639C94.5024 76.2461 95.217 79.271 94.546 81.5131C93.8526 83.9245 92.7051 85.1937 87.5723 89.2338C85.5149 90.8623 83.5873 92.5334 83.2843 92.9777C82.5046 94.0776 81.8763 96.2351 81.8763 97.7581C81.8983 101.291 84.2371 107.7 87.3125 112.628C89.6945 116.457 93.9609 121.364 98.1841 125.129C103.144 129.571 107.518 132.596 112.456 134.986C118.801 138.074 122.678 138.857 125.515 137.567C126.23 137.249 126.988 136.826 127.226 136.636C127.442 136.446 129.11 134.457 130.93 132.258C134.438 127.942 135.239 127.244 137.643 126.441C140.697 125.425 143.815 125.7 146.955 127.266C149.338 128.471 154.535 131.623 157.892 133.907C162.31 136.932 171.752 144.462 173.031 145.964C175.283 148.672 175.673 152.14 174.156 155.969C172.554 160.009 166.317 167.582 161.964 170.818C158.022 173.737 155.229 174.858 151.547 175.027C148.515 175.175 147.259 174.922 143.382 173.356C112.976 161.109 88.6985 142.834 69.4236 117.726C59.3534 104.611 51.6867 91.0106 46.4455 76.902C43.3921 68.6739 43.2406 65.0991 45.7525 60.8898C46.8356 59.1131 51.4485 54.7133 54.8052 52.2598C60.3929 48.1984 62.9699 46.6965 65.0274 46.2736C66.435 45.9774 68.8821 46.21 70.4416 46.7601ZM121.444 59.811C134.59 61.6934 144.768 67.6585 151.439 77.3461C155.185 82.8034 157.524 89.2125 158.325 96.0869C158.607 98.6041 158.607 103.194 158.304 103.956C158.022 104.675 157.113 105.648 156.333 106.05C155.488 106.473 153.691 106.431 152.695 105.923C151.027 105.098 150.529 103.786 150.529 100.233C150.529 94.7545 149.078 88.9799 146.566 84.4956C143.707 79.3767 139.549 75.1463 134.481 72.206C130.128 69.6678 123.696 67.7853 117.827 67.32C115.705 67.1506 114.535 66.7277 113.734 65.8182C112.5 64.4432 112.369 62.5818 113.409 61.0378C114.535 59.3244 116.268 59.0494 121.444 59.811ZM126.056 75.7808C130.323 76.6693 133.593 78.2557 136.387 80.8151C139.982 84.1358 141.953 88.1549 142.819 93.9295C143.404 97.6946 143.166 99.1752 141.801 100.402C140.523 101.544 138.163 101.587 136.733 100.508C135.694 99.7463 135.369 98.9425 135.131 96.764C134.849 93.866 134.329 91.8354 133.442 89.9528C131.536 85.955 128.179 83.8821 122.505 83.2052C119.841 82.8879 119.04 82.5918 118.174 81.5978C116.593 79.7575 117.199 76.775 119.386 75.675C120.209 75.2732 120.556 75.2308 122.375 75.3366C123.501 75.4001 125.169 75.5904 126.056 75.7808Z" fill="white"/>
</g>
<defs>
<clipPath id="clip0_9_351">
<rect width="220" height="220" fill="white"/>
</clipPath>
</defs>
</svg>
