<svg width="220" height="220" viewBox="0 0 220 220" fill="none" xmlns="http://www.w3.org/2000/svg">
<g clip-path="url(#clip0_9_389)">
<path d="M110 220C49.258 220 0 170.742 0 110C0 49.258 49.258 0 110 0C170.742 0 220 49.258 220 110C220 170.742 170.742 220 110 220Z" fill="#25D366"/>
<path fill-rule="evenodd" clip-rule="evenodd" d="M159.612 60.3498C146.459 47.2407 128.935 40.0211 110.286 40C71.8654 40 40.5728 71.1158 40.5728 109.367C40.5728 121.589 43.7763 133.537 49.8863 144.05L40 180L76.9571 170.353C87.1405 175.884 98.5967 178.797 110.265 178.797H110.286C148.707 178.797 179.979 147.681 180 109.43C180.021 90.8957 172.787 73.459 159.612 60.3498ZM110.308 167.081H110.286C99.8909 167.081 89.6863 164.294 80.7971 159.038L78.6755 157.793L56.7389 163.513L62.5943 142.235L61.2153 140.06C55.4235 130.878 52.3473 120.28 52.3473 109.367C52.3685 77.5754 78.3573 51.7159 110.329 51.7159C125.816 51.7159 140.349 57.7322 151.296 68.6248C162.243 79.5175 168.268 94.0199 168.247 109.409C168.247 141.221 142.237 167.081 110.308 167.081ZM142.088 123.89C140.349 123.025 131.778 118.824 130.186 118.254C128.595 117.684 127.428 117.388 126.262 119.119C125.095 120.85 121.764 124.756 120.746 125.917C119.727 127.078 118.709 127.226 116.969 126.36C115.23 125.495 109.607 123.658 102.967 117.747C97.7906 113.145 94.29 107.467 93.2717 105.736C92.2534 104.005 93.1656 103.055 94.0354 102.189C94.8204 101.408 95.7751 100.163 96.6449 99.1496C97.5148 98.1363 97.8118 97.4186 98.3846 96.2575C98.9574 95.0965 98.6816 94.0832 98.2361 93.2177C97.7906 92.3522 94.3112 83.8239 92.8686 80.3408C91.4472 76.9632 90.0257 77.4276 88.9438 77.3643C87.9254 77.3221 86.7586 77.301 85.613 77.301C84.4461 77.301 82.5579 77.7443 80.9668 79.4753C79.3757 81.2063 74.878 85.4071 74.878 93.9355C74.878 102.464 81.1153 110.718 81.9851 111.858C82.855 113.019 94.2688 130.519 111.75 138.034C115.908 139.828 119.154 140.884 121.679 141.686C125.858 143.016 129.656 142.826 132.647 142.382C135.999 141.876 142.958 138.182 144.401 134.15C145.843 130.096 145.843 126.634 145.419 125.917C144.995 125.199 143.828 124.777 142.088 123.89Z" fill="white"/>
</g>
<defs>
<clipPath id="clip0_9_389">
<rect width="220" height="220" fill="white"/>
</clipPath>
</defs>
</svg>
