<svg width="220" height="220" viewBox="0 0 220 220" fill="none" xmlns="http://www.w3.org/2000/svg">
<path d="M220 110.001C220 170.752 170.749 220 109.999 220C49.2476 220 0 170.752 0 110.001C0 49.2476 49.2476 0 109.999 0C170.749 0.00036917 220 49.248 220 110.001Z" fill="#E62A41"/>
<path d="M178.789 81.8474C178.789 81.8474 177.419 72.051 173.221 67.7341C167.897 62.0718 161.931 62.042 159.194 61.7109C139.603 60.274 110.213 60.274 110.213 60.274H110.152C110.152 60.274 80.7687 60.274 61.177 61.7109C58.44 62.042 52.4721 62.0713 47.1488 67.7341C42.9525 72.051 41.5857 81.8474 41.5857 81.8474C41.5857 81.8474 40.1826 93.3505 40.1826 104.858V115.645C40.1826 127.151 41.5857 138.655 41.5857 138.655C41.5857 138.655 42.9525 148.452 47.1488 152.769C52.4721 158.431 59.468 158.253 62.5841 158.845C73.7842 159.935 110.185 160.274 110.185 160.274C110.185 160.274 139.602 160.228 159.193 158.792C161.93 158.46 167.897 158.43 173.221 152.769C177.418 148.452 178.789 138.655 178.789 138.655C178.789 138.655 180.183 127.151 180.183 115.645V104.858C180.183 93.3505 178.789 81.8474 178.789 81.8474ZM95.7337 128.719L95.7255 88.7694L133.553 108.81L95.7337 128.719Z" fill="white"/>
</svg>
